# xmcd
#
# Track frame offsets:
#   150
#   22928
#   40193
#   55389
#   67561
#   79414
#   92928
#   105482
#   116977
#   133523
#   150938
#   162351
#   172476
#   183879
#   197936
#   212174
#   232061
#   239451
#   250165
#   268040
#   288451
#   302263
#
# Disc length: 4308 seconds
#
# Revision: 0
# Processed by: cddbd v1.5.2PL0 Copyright (c) Steve Scherf et al.
# Submitted via: uFREEDB ActiveX Control 1.5
#
DISCID=3610d216
DTITLE=maquina do tempo - maquina do tempo
DYEAR=1900
DGENRE=Blues
TTITLE0=maquina do tempo1
TTITLE1=maquina do tempo2
TTITLE2=maquina do tempo3
TTITLE3=maquina do tempo4
TTITLE4=maquina do tempo5
TTITLE5=maquina do tempo6
TTITLE6=maquina do tempo7
TTITLE7=maquina do tempo8
TTITLE8=maquina do tempo9
TTITLE9=maquina do tempo10
TTITLE10=maquina do tempo11
TTITLE11=maquina do tempo12
TTITLE12=maquina do tempo13
TTITLE13=maquina do tempo14
TTITLE14=maquina do tempo15
TTITLE15=maquina do tempo16
TTITLE16=maquina do tempo17
TTITLE17=maquina do tempo18
TTITLE18=maquina do tempo19
TTITLE19=maquina do tempo20
TTITLE20=maquina do tempo21
TTITLE21=maquina do tempo22
EXTD=
EXTT0=
EXTT1=
EXTT2=
EXTT3=
EXTT4=
EXTT5=
EXTT6=
EXTT7=
EXTT8=
EXTT9=
EXTT10=
EXTT11=
EXTT12=
EXTT13=
EXTT14=
EXTT15=
EXTT16=
EXTT17=
EXTT18=
EXTT19=
EXTT20=
EXTT21=
PLAYORDER=
